<mxfile host="app.diagrams.net" modified="2021-06-11T20:56:40.459Z" agent="5.0 (Windows NT 10.0; Win64; x64) AppleWebKit/537.36 (KHTML, like Gecko) Chrome/91.0.4472.77 Safari/537.36" etag="krOcsBU-jt0vxiXC2EHZ" version="14.7.7" type="github">
  <diagram id="C5RBs43oDa-KdzZeNtuy" name="Page-1">
    <mxGraphModel dx="2858" dy="2258" grid="1" gridSize="10" guides="1" tooltips="1" connect="1" arrows="1" fold="1" page="1" pageScale="1" pageWidth="827" pageHeight="1169" math="0" shadow="0">
      <root>
        <mxCell id="WIyWlLk6GJQsqaUBKTNV-0" />
        <mxCell id="WIyWlLk6GJQsqaUBKTNV-1" parent="WIyWlLk6GJQsqaUBKTNV-0" />
        <mxCell id="fGjbFM0OLDp1nDIKbb4i-11" style="edgeStyle=orthogonalEdgeStyle;rounded=0;orthogonalLoop=1;jettySize=auto;html=1;entryX=0.5;entryY=0;entryDx=0;entryDy=0;" edge="1" parent="WIyWlLk6GJQsqaUBKTNV-1" source="fGjbFM0OLDp1nDIKbb4i-6" target="fGjbFM0OLDp1nDIKbb4i-13">
          <mxGeometry relative="1" as="geometry">
            <mxPoint x="83.5" y="370" as="targetPoint" />
          </mxGeometry>
        </mxCell>
        <mxCell id="fGjbFM0OLDp1nDIKbb4i-6" value="&lt;span&gt;Ввод символов в поле &quot;Куда вы хотите поехать?&quot; для выбора населенного пункта&lt;/span&gt;" style="shape=parallelogram;perimeter=parallelogramPerimeter;whiteSpace=wrap;html=1;fixedSize=1;" vertex="1" parent="WIyWlLk6GJQsqaUBKTNV-1">
          <mxGeometry x="-561.25" y="160" width="275" height="80" as="geometry" />
        </mxCell>
        <mxCell id="fGjbFM0OLDp1nDIKbb4i-69" style="edgeStyle=orthogonalEdgeStyle;rounded=0;orthogonalLoop=1;jettySize=auto;html=1;exitX=0.5;exitY=1;exitDx=0;exitDy=0;entryX=0.5;entryY=0;entryDx=0;entryDy=0;" edge="1" parent="WIyWlLk6GJQsqaUBKTNV-1" source="fGjbFM0OLDp1nDIKbb4i-13" target="fGjbFM0OLDp1nDIKbb4i-15">
          <mxGeometry relative="1" as="geometry" />
        </mxCell>
        <mxCell id="fGjbFM0OLDp1nDIKbb4i-13" value="Значение поля &amp;gt;= одному символу?" style="rhombus;whiteSpace=wrap;html=1;" vertex="1" parent="WIyWlLk6GJQsqaUBKTNV-1">
          <mxGeometry x="-493.75" y="300" width="140" height="120" as="geometry" />
        </mxCell>
        <mxCell id="fGjbFM0OLDp1nDIKbb4i-70" style="edgeStyle=orthogonalEdgeStyle;rounded=0;orthogonalLoop=1;jettySize=auto;html=1;entryX=0.5;entryY=0;entryDx=0;entryDy=0;" edge="1" parent="WIyWlLk6GJQsqaUBKTNV-1" source="fGjbFM0OLDp1nDIKbb4i-15" target="fGjbFM0OLDp1nDIKbb4i-28">
          <mxGeometry relative="1" as="geometry" />
        </mxCell>
        <mxCell id="fGjbFM0OLDp1nDIKbb4i-15" value="Выполни метод обработки и поиска данных из кэша и выведи выпадающий список результатов" style="rounded=0;whiteSpace=wrap;html=1;" vertex="1" parent="WIyWlLk6GJQsqaUBKTNV-1">
          <mxGeometry x="-522.5" y="480" width="190" height="70" as="geometry" />
        </mxCell>
        <mxCell id="fGjbFM0OLDp1nDIKbb4i-18" value="" style="edgeStyle=orthogonalEdgeStyle;rounded=0;orthogonalLoop=1;jettySize=auto;html=1;exitX=0.5;exitY=1;exitDx=0;exitDy=0;" edge="1" parent="WIyWlLk6GJQsqaUBKTNV-1" source="fGjbFM0OLDp1nDIKbb4i-84" target="fGjbFM0OLDp1nDIKbb4i-6">
          <mxGeometry relative="1" as="geometry">
            <mxPoint x="-422.4285714285711" y="90" as="sourcePoint" />
          </mxGeometry>
        </mxCell>
        <mxCell id="fGjbFM0OLDp1nDIKbb4i-20" value="Да" style="text;html=1;align=center;verticalAlign=middle;resizable=0;points=[];autosize=1;strokeColor=none;" vertex="1" parent="WIyWlLk6GJQsqaUBKTNV-1">
          <mxGeometry x="-420" y="880" width="30" height="20" as="geometry" />
        </mxCell>
        <mxCell id="fGjbFM0OLDp1nDIKbb4i-81" style="edgeStyle=orthogonalEdgeStyle;rounded=0;orthogonalLoop=1;jettySize=auto;html=1;entryX=0.5;entryY=0;entryDx=0;entryDy=0;" edge="1" parent="WIyWlLk6GJQsqaUBKTNV-1" source="fGjbFM0OLDp1nDIKbb4i-24" target="fGjbFM0OLDp1nDIKbb4i-53">
          <mxGeometry relative="1" as="geometry">
            <mxPoint x="-430" y="-170" as="targetPoint" />
          </mxGeometry>
        </mxCell>
        <mxCell id="fGjbFM0OLDp1nDIKbb4i-82" style="edgeStyle=orthogonalEdgeStyle;rounded=0;orthogonalLoop=1;jettySize=auto;html=1;" edge="1" parent="WIyWlLk6GJQsqaUBKTNV-1" source="fGjbFM0OLDp1nDIKbb4i-24" target="fGjbFM0OLDp1nDIKbb4i-52">
          <mxGeometry relative="1" as="geometry" />
        </mxCell>
        <mxCell id="fGjbFM0OLDp1nDIKbb4i-91" style="edgeStyle=orthogonalEdgeStyle;rounded=0;orthogonalLoop=1;jettySize=auto;html=1;entryX=0.5;entryY=0;entryDx=0;entryDy=0;" edge="1" parent="WIyWlLk6GJQsqaUBKTNV-1" source="fGjbFM0OLDp1nDIKbb4i-24" target="fGjbFM0OLDp1nDIKbb4i-89">
          <mxGeometry relative="1" as="geometry" />
        </mxCell>
        <mxCell id="fGjbFM0OLDp1nDIKbb4i-93" style="edgeStyle=orthogonalEdgeStyle;rounded=0;orthogonalLoop=1;jettySize=auto;html=1;entryX=0.5;entryY=0;entryDx=0;entryDy=0;" edge="1" parent="WIyWlLk6GJQsqaUBKTNV-1" source="fGjbFM0OLDp1nDIKbb4i-24" target="fGjbFM0OLDp1nDIKbb4i-92">
          <mxGeometry relative="1" as="geometry" />
        </mxCell>
        <mxCell id="fGjbFM0OLDp1nDIKbb4i-24" value="Загрузка страницы, загрузка необходимых данных (населенные пункты, текущая дата, отрисовка полей ввода данных, ip) в кэш и coockie" style="rounded=0;whiteSpace=wrap;html=1;" vertex="1" parent="WIyWlLk6GJQsqaUBKTNV-1">
          <mxGeometry x="-530" y="-280" width="211.25" height="70" as="geometry" />
        </mxCell>
        <mxCell id="fGjbFM0OLDp1nDIKbb4i-71" style="edgeStyle=orthogonalEdgeStyle;rounded=0;orthogonalLoop=1;jettySize=auto;html=1;entryX=0.5;entryY=0;entryDx=0;entryDy=0;" edge="1" parent="WIyWlLk6GJQsqaUBKTNV-1" source="fGjbFM0OLDp1nDIKbb4i-28" target="fGjbFM0OLDp1nDIKbb4i-32">
          <mxGeometry relative="1" as="geometry" />
        </mxCell>
        <mxCell id="fGjbFM0OLDp1nDIKbb4i-28" value="Вывод результатов в выпадающем списке" style="shape=parallelogram;perimeter=parallelogramPerimeter;whiteSpace=wrap;html=1;fixedSize=1;" vertex="1" parent="WIyWlLk6GJQsqaUBKTNV-1">
          <mxGeometry x="-512.5" y="620" width="180" height="60" as="geometry" />
        </mxCell>
        <mxCell id="fGjbFM0OLDp1nDIKbb4i-43" value="" style="edgeStyle=orthogonalEdgeStyle;rounded=0;orthogonalLoop=1;jettySize=auto;html=1;" edge="1" parent="WIyWlLk6GJQsqaUBKTNV-1" source="fGjbFM0OLDp1nDIKbb4i-32" target="fGjbFM0OLDp1nDIKbb4i-36">
          <mxGeometry relative="1" as="geometry" />
        </mxCell>
        <mxCell id="fGjbFM0OLDp1nDIKbb4i-32" value="Выбран один результат из выпадающего списка?" style="rhombus;whiteSpace=wrap;html=1;" vertex="1" parent="WIyWlLk6GJQsqaUBKTNV-1">
          <mxGeometry x="-502.5" y="710" width="165" height="150" as="geometry" />
        </mxCell>
        <mxCell id="fGjbFM0OLDp1nDIKbb4i-35" value="Да" style="text;html=1;align=center;verticalAlign=middle;resizable=0;points=[];autosize=1;strokeColor=none;" vertex="1" parent="WIyWlLk6GJQsqaUBKTNV-1">
          <mxGeometry x="-425" y="440" width="30" height="20" as="geometry" />
        </mxCell>
        <mxCell id="fGjbFM0OLDp1nDIKbb4i-36" value="Заполни в поле &quot;Куда вы хотите поехать?&quot; данные из выбранного результата. Сохрани в кэш/на сервер/coockies" style="rounded=1;whiteSpace=wrap;html=1;" vertex="1" parent="WIyWlLk6GJQsqaUBKTNV-1">
          <mxGeometry x="-512.5" y="920" width="185" height="90" as="geometry" />
        </mxCell>
        <mxCell id="fGjbFM0OLDp1nDIKbb4i-55" style="edgeStyle=orthogonalEdgeStyle;rounded=0;orthogonalLoop=1;jettySize=auto;html=1;exitX=0.5;exitY=1;exitDx=0;exitDy=0;entryX=0.5;entryY=0;entryDx=0;entryDy=0;" edge="1" parent="WIyWlLk6GJQsqaUBKTNV-1" source="fGjbFM0OLDp1nDIKbb4i-38">
          <mxGeometry relative="1" as="geometry">
            <mxPoint x="-157.5" y="170" as="targetPoint" />
          </mxGeometry>
        </mxCell>
        <mxCell id="fGjbFM0OLDp1nDIKbb4i-57" style="edgeStyle=orthogonalEdgeStyle;rounded=0;orthogonalLoop=1;jettySize=auto;html=1;entryX=0.5;entryY=0;entryDx=0;entryDy=0;" edge="1" parent="WIyWlLk6GJQsqaUBKTNV-1" source="fGjbFM0OLDp1nDIKbb4i-38" target="fGjbFM0OLDp1nDIKbb4i-56">
          <mxGeometry relative="1" as="geometry" />
        </mxCell>
        <mxCell id="fGjbFM0OLDp1nDIKbb4i-38" value="&lt;span&gt;Вывод отображения двух календарей&lt;/span&gt;" style="shape=parallelogram;perimeter=parallelogramPerimeter;whiteSpace=wrap;html=1;fixedSize=1;" vertex="1" parent="WIyWlLk6GJQsqaUBKTNV-1">
          <mxGeometry x="-182.5" y="40" width="275" height="80" as="geometry" />
        </mxCell>
        <mxCell id="fGjbFM0OLDp1nDIKbb4i-47" value="&lt;span&gt;Вывод отображения двух календарей&lt;/span&gt;" style="shape=parallelogram;perimeter=parallelogramPerimeter;whiteSpace=wrap;html=1;fixedSize=1;" vertex="1" parent="WIyWlLk6GJQsqaUBKTNV-1">
          <mxGeometry x="320" y="300" width="275" height="80" as="geometry" />
        </mxCell>
        <mxCell id="fGjbFM0OLDp1nDIKbb4i-66" value="" style="edgeStyle=orthogonalEdgeStyle;rounded=0;orthogonalLoop=1;jettySize=auto;html=1;" edge="1" parent="WIyWlLk6GJQsqaUBKTNV-1" source="fGjbFM0OLDp1nDIKbb4i-50" target="fGjbFM0OLDp1nDIKbb4i-63">
          <mxGeometry relative="1" as="geometry" />
        </mxCell>
        <mxCell id="fGjbFM0OLDp1nDIKbb4i-77" style="edgeStyle=orthogonalEdgeStyle;rounded=0;orthogonalLoop=1;jettySize=auto;html=1;exitX=0.5;exitY=1;exitDx=0;exitDy=0;entryX=0.5;entryY=0;entryDx=0;entryDy=0;" edge="1" parent="WIyWlLk6GJQsqaUBKTNV-1" source="fGjbFM0OLDp1nDIKbb4i-50" target="fGjbFM0OLDp1nDIKbb4i-76">
          <mxGeometry relative="1" as="geometry" />
        </mxCell>
        <mxCell id="fGjbFM0OLDp1nDIKbb4i-50" value="Дата заезда&lt;br&gt;&amp;nbsp;выбрана?" style="rhombus;whiteSpace=wrap;html=1;" vertex="1" parent="WIyWlLk6GJQsqaUBKTNV-1">
          <mxGeometry x="-112.5" y="450" width="135" height="140" as="geometry" />
        </mxCell>
        <mxCell id="fGjbFM0OLDp1nDIKbb4i-83" style="edgeStyle=orthogonalEdgeStyle;rounded=0;orthogonalLoop=1;jettySize=auto;html=1;exitX=0.5;exitY=1;exitDx=0;exitDy=0;entryX=0.5;entryY=0;entryDx=0;entryDy=0;" edge="1" parent="WIyWlLk6GJQsqaUBKTNV-1" source="fGjbFM0OLDp1nDIKbb4i-52" target="fGjbFM0OLDp1nDIKbb4i-38">
          <mxGeometry relative="1" as="geometry">
            <mxPoint x="-70" y="10" as="targetPoint" />
          </mxGeometry>
        </mxCell>
        <mxCell id="fGjbFM0OLDp1nDIKbb4i-52" value="Был клик по полю &quot;Заезд - Отъезд&quot;?" style="rhombus;whiteSpace=wrap;html=1;" vertex="1" parent="WIyWlLk6GJQsqaUBKTNV-1">
          <mxGeometry x="-132.5" y="-130" width="135" height="140" as="geometry" />
        </mxCell>
        <mxCell id="fGjbFM0OLDp1nDIKbb4i-85" value="" style="edgeStyle=orthogonalEdgeStyle;rounded=0;orthogonalLoop=1;jettySize=auto;html=1;" edge="1" parent="WIyWlLk6GJQsqaUBKTNV-1" source="fGjbFM0OLDp1nDIKbb4i-53" target="fGjbFM0OLDp1nDIKbb4i-84">
          <mxGeometry relative="1" as="geometry" />
        </mxCell>
        <mxCell id="fGjbFM0OLDp1nDIKbb4i-53" value="Был клик по полю &quot;Куда вы хотите поехать?&quot;?" style="rhombus;whiteSpace=wrap;html=1;" vertex="1" parent="WIyWlLk6GJQsqaUBKTNV-1">
          <mxGeometry x="-477.5" y="-140" width="135" height="140" as="geometry" />
        </mxCell>
        <mxCell id="fGjbFM0OLDp1nDIKbb4i-59" style="edgeStyle=orthogonalEdgeStyle;rounded=0;orthogonalLoop=1;jettySize=auto;html=1;entryX=0.438;entryY=-0.011;entryDx=0;entryDy=0;entryPerimeter=0;" edge="1" parent="WIyWlLk6GJQsqaUBKTNV-1" target="fGjbFM0OLDp1nDIKbb4i-58">
          <mxGeometry relative="1" as="geometry">
            <mxPoint x="-157.4285714285711" y="260" as="sourcePoint" />
          </mxGeometry>
        </mxCell>
        <mxCell id="fGjbFM0OLDp1nDIKbb4i-54" value="&lt;span&gt;Календарь 1: Выведи все дни текущего месяца как активные элементы для выбора, которые &amp;gt;= текущей дате.&lt;/span&gt;" style="shape=parallelogram;perimeter=parallelogramPerimeter;whiteSpace=wrap;html=1;fixedSize=1;" vertex="1" parent="WIyWlLk6GJQsqaUBKTNV-1">
          <mxGeometry x="-265" y="170" width="220" height="90" as="geometry" />
        </mxCell>
        <mxCell id="fGjbFM0OLDp1nDIKbb4i-60" style="edgeStyle=orthogonalEdgeStyle;rounded=0;orthogonalLoop=1;jettySize=auto;html=1;entryX=0.5;entryY=0;entryDx=0;entryDy=0;" edge="1" parent="WIyWlLk6GJQsqaUBKTNV-1" source="fGjbFM0OLDp1nDIKbb4i-56" target="fGjbFM0OLDp1nDIKbb4i-58">
          <mxGeometry relative="1" as="geometry" />
        </mxCell>
        <mxCell id="fGjbFM0OLDp1nDIKbb4i-56" value="&lt;span&gt;Календарь 2: Выведи все дни текущего месяца как активные элементы для выбора.&lt;/span&gt;" style="shape=parallelogram;perimeter=parallelogramPerimeter;whiteSpace=wrap;html=1;fixedSize=1;" vertex="1" parent="WIyWlLk6GJQsqaUBKTNV-1">
          <mxGeometry x="-30" y="170" width="220" height="90" as="geometry" />
        </mxCell>
        <mxCell id="fGjbFM0OLDp1nDIKbb4i-65" style="edgeStyle=orthogonalEdgeStyle;rounded=0;orthogonalLoop=1;jettySize=auto;html=1;entryX=0.5;entryY=0;entryDx=0;entryDy=0;" edge="1" parent="WIyWlLk6GJQsqaUBKTNV-1" source="fGjbFM0OLDp1nDIKbb4i-58" target="fGjbFM0OLDp1nDIKbb4i-50">
          <mxGeometry relative="1" as="geometry" />
        </mxCell>
        <mxCell id="fGjbFM0OLDp1nDIKbb4i-58" value="&lt;span&gt;Выбор пользователем даты заезда &lt;br&gt;из активных элементов&lt;/span&gt;" style="shape=parallelogram;perimeter=parallelogramPerimeter;whiteSpace=wrap;html=1;fixedSize=1;" vertex="1" parent="WIyWlLk6GJQsqaUBKTNV-1">
          <mxGeometry x="-182.5" y="335" width="275" height="80" as="geometry" />
        </mxCell>
        <mxCell id="fGjbFM0OLDp1nDIKbb4i-73" value="" style="edgeStyle=orthogonalEdgeStyle;rounded=0;orthogonalLoop=1;jettySize=auto;html=1;" edge="1" parent="WIyWlLk6GJQsqaUBKTNV-1" source="fGjbFM0OLDp1nDIKbb4i-61" target="fGjbFM0OLDp1nDIKbb4i-72">
          <mxGeometry relative="1" as="geometry" />
        </mxCell>
        <mxCell id="fGjbFM0OLDp1nDIKbb4i-61" value="&lt;span&gt;Выбор пользователем даты отъезда из активных элементов&lt;/span&gt;" style="shape=parallelogram;perimeter=parallelogramPerimeter;whiteSpace=wrap;html=1;fixedSize=1;" vertex="1" parent="WIyWlLk6GJQsqaUBKTNV-1">
          <mxGeometry x="-182.5" y="790" width="275" height="80" as="geometry" />
        </mxCell>
        <mxCell id="fGjbFM0OLDp1nDIKbb4i-68" style="edgeStyle=orthogonalEdgeStyle;rounded=0;orthogonalLoop=1;jettySize=auto;html=1;entryX=0.5;entryY=0;entryDx=0;entryDy=0;" edge="1" parent="WIyWlLk6GJQsqaUBKTNV-1" source="fGjbFM0OLDp1nDIKbb4i-63" target="fGjbFM0OLDp1nDIKbb4i-61">
          <mxGeometry relative="1" as="geometry" />
        </mxCell>
        <mxCell id="fGjbFM0OLDp1nDIKbb4i-63" value="&lt;span&gt;Выведи все дни&amp;nbsp; активными элементами &lt;br&gt;для выбора, которые &amp;gt;= текущей дате,&lt;br&gt;&amp;nbsp;где текущая дата = +1 день.&lt;/span&gt;" style="shape=parallelogram;perimeter=parallelogramPerimeter;whiteSpace=wrap;html=1;fixedSize=1;" vertex="1" parent="WIyWlLk6GJQsqaUBKTNV-1">
          <mxGeometry x="-220" y="650" width="312.5" height="80" as="geometry" />
        </mxCell>
        <mxCell id="fGjbFM0OLDp1nDIKbb4i-67" value="Да" style="text;html=1;align=center;verticalAlign=middle;resizable=0;points=[];autosize=1;strokeColor=none;" vertex="1" parent="WIyWlLk6GJQsqaUBKTNV-1">
          <mxGeometry x="-60" y="625" width="30" height="20" as="geometry" />
        </mxCell>
        <mxCell id="fGjbFM0OLDp1nDIKbb4i-75" style="edgeStyle=orthogonalEdgeStyle;rounded=0;orthogonalLoop=1;jettySize=auto;html=1;entryX=0.5;entryY=0;entryDx=0;entryDy=0;" edge="1" parent="WIyWlLk6GJQsqaUBKTNV-1" source="fGjbFM0OLDp1nDIKbb4i-72" target="fGjbFM0OLDp1nDIKbb4i-79">
          <mxGeometry relative="1" as="geometry">
            <mxPoint x="-52.5" y="1100" as="targetPoint" />
          </mxGeometry>
        </mxCell>
        <mxCell id="fGjbFM0OLDp1nDIKbb4i-72" value="Дата отъезда&lt;br&gt;&amp;nbsp;выбрана?" style="rhombus;whiteSpace=wrap;html=1;" vertex="1" parent="WIyWlLk6GJQsqaUBKTNV-1">
          <mxGeometry x="-120" y="930" width="135" height="140" as="geometry" />
        </mxCell>
        <mxCell id="fGjbFM0OLDp1nDIKbb4i-76" value="&amp;nbsp;В поле &quot;Заезд - Отъезд&quot; замени слово &quot;Заезд&quot; выбранным эелемнтом." style="rounded=1;whiteSpace=wrap;html=1;" vertex="1" parent="WIyWlLk6GJQsqaUBKTNV-1">
          <mxGeometry x="130" y="645" width="160" height="90" as="geometry" />
        </mxCell>
        <mxCell id="fGjbFM0OLDp1nDIKbb4i-78" value="Да" style="text;html=1;align=center;verticalAlign=middle;resizable=0;points=[];autosize=1;strokeColor=none;" vertex="1" parent="WIyWlLk6GJQsqaUBKTNV-1">
          <mxGeometry x="50" y="600" width="30" height="20" as="geometry" />
        </mxCell>
        <mxCell id="fGjbFM0OLDp1nDIKbb4i-79" value="&amp;nbsp;В поле &quot;Заезд - Отъезд&quot; замени слово &quot;Отъезд&quot; выбранным элементом = дата отъезда. А также скрой календари. Сохрани в кэш/cookies/сервер" style="rounded=1;whiteSpace=wrap;html=1;" vertex="1" parent="WIyWlLk6GJQsqaUBKTNV-1">
          <mxGeometry x="-132.5" y="1100" width="160" height="90" as="geometry" />
        </mxCell>
        <mxCell id="fGjbFM0OLDp1nDIKbb4i-87" value="" style="edgeStyle=orthogonalEdgeStyle;rounded=0;orthogonalLoop=1;jettySize=auto;html=1;" edge="1" parent="WIyWlLk6GJQsqaUBKTNV-1" source="fGjbFM0OLDp1nDIKbb4i-80" target="fGjbFM0OLDp1nDIKbb4i-24">
          <mxGeometry relative="1" as="geometry" />
        </mxCell>
        <mxCell id="fGjbFM0OLDp1nDIKbb4i-80" value="Зайти на сайт booking.com" style="rounded=1;whiteSpace=wrap;html=1;fontSize=12;glass=0;strokeWidth=1;shadow=0;" vertex="1" parent="WIyWlLk6GJQsqaUBKTNV-1">
          <mxGeometry x="-515" y="-360" width="180" height="40" as="geometry" />
        </mxCell>
        <mxCell id="fGjbFM0OLDp1nDIKbb4i-84" value="&lt;span&gt;Вывод выпадающего списка &quot;Популярные направления поблизости&quot;&lt;/span&gt;" style="shape=parallelogram;perimeter=parallelogramPerimeter;whiteSpace=wrap;html=1;fixedSize=1;" vertex="1" parent="WIyWlLk6GJQsqaUBKTNV-1">
          <mxGeometry x="-557.5" y="40" width="275" height="80" as="geometry" />
        </mxCell>
        <mxCell id="fGjbFM0OLDp1nDIKbb4i-86" value="Да" style="text;html=1;align=center;verticalAlign=middle;resizable=0;points=[];autosize=1;strokeColor=none;" vertex="1" parent="WIyWlLk6GJQsqaUBKTNV-1">
          <mxGeometry x="-405" width="30" height="20" as="geometry" />
        </mxCell>
        <mxCell id="fGjbFM0OLDp1nDIKbb4i-88" value="Да" style="text;html=1;align=center;verticalAlign=middle;resizable=0;points=[];autosize=1;strokeColor=none;" vertex="1" parent="WIyWlLk6GJQsqaUBKTNV-1">
          <mxGeometry x="-45" y="1070" width="30" height="20" as="geometry" />
        </mxCell>
        <mxCell id="fGjbFM0OLDp1nDIKbb4i-89" value="Был клик по полю&lt;br&gt;&amp;nbsp;&quot;2 взрослых - без детей - 1 номер&quot; ?" style="rhombus;whiteSpace=wrap;html=1;" vertex="1" parent="WIyWlLk6GJQsqaUBKTNV-1">
          <mxGeometry x="200" y="-120" width="180" height="170" as="geometry" />
        </mxCell>
        <mxCell id="fGjbFM0OLDp1nDIKbb4i-92" value="Был клик по кнопке&lt;br&gt;&amp;nbsp;&quot;Проверить цены?&quot;" style="rhombus;whiteSpace=wrap;html=1;" vertex="1" parent="WIyWlLk6GJQsqaUBKTNV-1">
          <mxGeometry x="595" y="-120" width="180" height="170" as="geometry" />
        </mxCell>
        <mxCell id="fGjbFM0OLDp1nDIKbb4i-94" value="Был клик по кнопке&lt;br&gt;&amp;nbsp;&quot;Проверить цены?&quot;" style="rhombus;whiteSpace=wrap;html=1;" vertex="1" parent="WIyWlLk6GJQsqaUBKTNV-1">
          <mxGeometry x="605" y="60" width="180" height="170" as="geometry" />
        </mxCell>
      </root>
    </mxGraphModel>
  </diagram>
</mxfile>
